<svg xmlns="http://www.w3.org/2000/svg" width="1000" height="1000"><path d="M500 50L500 90L90 500L500 910L910 500L500 90L500 50L950 500L500 950L50 500ZM485 140L200 425L242.5 425L455 212.5L455 425L485 425ZM170 455L485 455L485 485L140 485ZM515 140L515 365L585 365L585 335L545 335L545 170ZM615 240L615 365L740 365L710 335L645 335L645 270ZM515 395L770 395L860 485L817.5 485L757.5 425L515 425ZM515 860L800 575L757.5 575L545 787.5L545 575L515 575ZM830 545L515 545L515 515L860 515ZM485 860L485 635L415 635L415 665L455 665L455 830ZM385 760L385 635L260 635L290 665L355 665L355 730ZM485 605L230 605L140 515L182.5 515L242.5 575L485 575Z" /></svg>