<svg xmlns="http://www.w3.org/2000/svg" width="1000" height="1000">
  <path d="
    M500 50
      L500 90
      L90 500
      L500 910
      L910 500
    L500 90
      L500 50
      L950 500
      L500 950
      L50 500
    Z
  "/>

  <path d="
    M485 140
    L200 425
    L242.5 425
    L455 212.5
    L455 425
    L485 425
    Z
  " />
  <path d="
    M170 455
    L485 455
    L485 485
    L140 485
    Z
  " />

  <path d="
    M515 140
    L515 365
    L585 365
    L585 335
    L545 335
    L545 170
    Z
  " />
  <path d="
    M615 240
    L615 365
    L740 365
    L710 335
    L645 335
    L645 270
    Z
  " />
  <path d="
    M515 395
    L770 395
    L860 485
    L817.5 485
    L757.5 425
    L515 425
    Z
  " />

  <path d="
    M515 860
    L800 575
    L757.5 575
    L545 787.5
    L545 575
    L515 575
    Z
  " />
  <path d="
    M830 545
    L515 545
    L515 515
    L860 515
    Z
  " />

  <path d="
    M485 860
    L485 635
    L415 635
    L415 665
    L455 665
    L455 830
    Z
  " />
  <path d="
    M385 760
    L385 635
    L260 635
    L290 665
    L355 665
    L355 730
    Z
  " />
  <path d="
    M485 605
    L230 605
    L140 515
    L182.5 515
    L242.5 575
    L485 575
    Z
  " />
</svg>